<?xml version="1.0" standalone="no"?>
<!DOCTYPE svg PUBLIC "-//W3C//DTD SVG 20010904//EN"
 "http://www.w3.org/TR/2001/REC-SVG-20010904/DTD/svg10.dtd">
<svg version="1.0" xmlns="http://www.w3.org/2000/svg"
 width="1280.000000pt" height="1186.000000pt" viewBox="0 0 1280.000000 1186.000000"
 preserveAspectRatio="xMidYMid meet">
<metadata>
Created by potrace 1.15, written by Peter Selinger 2001-2017
</metadata>
<g transform="translate(0.000000,1186.000000) scale(0.100000,-0.100000)"
fill="#ffeb3b" stroke="none">
<path d="M6030 11849 c-1999 -112 -3847 -1115 -4974 -2699 -603 -847 -956
-1809 -1035 -2819 -14 -174 -14 -628 0 -802 70 -897 359 -1764 847 -2539 398
-634 931 -1208 1547 -1668 1330 -994 3000 -1455 4660 -1286 2365 240 4428
1723 5300 3809 135 324 268 769 330 1110 61 333 85 609 85 975 0 282 -9 442
-40 685 -193 1518 -1051 2941 -2365 3923 -1244 930 -2800 1398 -4355 1311z
m940 -654 c1263 -114 2412 -578 3330 -1346 159 -132 441 -408 583 -569 299
-340 525 -675 732 -1085 243 -479 399 -965 479 -1487 45 -295 51 -385 51 -778
0 -393 -6 -483 -51 -778 -145 -946 -564 -1837 -1211 -2572 -142 -161 -424
-437 -583 -569 -831 -695 -1859 -1145 -2980 -1305 -333 -48 -516 -60 -920 -60
-404 0 -587 12 -920 60 -1121 160 -2149 610 -2980 1305 -159 132 -441 408
-583 569 -299 340 -525 675 -732 1085 -243 479 -399 965 -479 1487 -45 295
-51 385 -51 778 0 393 6 483 51 778 145 947 564 1836 1211 2572 388 440 881
841 1402 1140 819 470 1743 734 2771 794 145 8 715 -4 880 -19z"/>
<path d="M6376 9565 c-50 -18 -94 -61 -106 -105 -5 -19 -15 -127 -21 -240 -6
-113 -14 -259 -18 -325 -8 -145 -2 -177 40 -221 62 -64 156 -66 218 -3 42 42
49 75 62 314 6 116 14 262 18 325 4 63 3 129 -1 146 -22 86 -113 137 -192 109z"/>
<path d="M4520 9058 c-61 -42 -86 -125 -57 -190 11 -24 382 -452 459 -529 64
-63 159 -59 221 10 41 46 54 95 37 145 -7 22 -65 96 -143 184 -73 82 -177 199
-232 261 -54 62 -112 119 -127 127 -42 22 -119 18 -158 -8z"/>
<path d="M8118 9065 c-14 -8 -87 -83 -161 -167 -73 -84 -177 -202 -229 -261
-106 -120 -127 -164 -108 -226 13 -47 66 -99 112 -112 44 -11 100 1 134 29 23
19 390 432 443 499 86 108 21 254 -114 253 -27 -1 -62 -7 -77 -15z"/>
<path d="M6135 8385 c-913 -116 -1649 -762 -1787 -1568 -17 -104 -20 -149 -15
-307 6 -206 21 -295 81 -475 63 -188 136 -324 305 -565 109 -156 412 -711 536
-982 158 -348 190 -478 240 -1000 l7 -68 154 0 155 0 -6 73 c-17 197 -69 569
-91 655 -14 53 -53 167 -87 252 -143 358 -536 1095 -703 1317 -121 160 -204
331 -250 515 -36 141 -45 397 -20 548 118 700 724 1217 1526 1300 288 30 594
-3 863 -91 286 -93 514 -235 713 -441 195 -202 319 -435 379 -708 26 -118 31
-375 11 -501 -34 -205 -124 -419 -246 -584 -174 -236 -538 -900 -695 -1270
-70 -162 -131 -357 -149 -470 -18 -119 -52 -397 -61 -513 l-7 -82 155 0 154 0
12 123 c21 213 60 479 81 556 81 290 496 1102 730 1431 188 263 293 515 336
802 21 147 15 400 -15 536 -165 769 -846 1371 -1706 1507 -140 23 -461 28
-600 10z"/>
<path d="M3290 7628 c-51 -26 -90 -84 -90 -136 0 -41 33 -107 64 -127 32 -21
672 -235 703 -235 65 0 137 61 149 126 4 20 1 53 -5 74 -23 78 -40 87 -407
208 -187 62 -346 112 -354 112 -9 0 -36 -10 -60 -22z"/>
<path d="M9097 7540 c-181 -61 -340 -118 -353 -127 -14 -9 -34 -34 -46 -56
-48 -94 14 -210 118 -223 31 -4 104 16 368 105 180 61 339 118 353 126 28 19
63 88 63 125 0 43 -36 106 -73 129 -67 41 -79 39 -430 -79z"/>
<path d="M6321 3490 c-336 -113 -361 -125 -387 -187 -43 -100 31 -213 138
-213 46 0 661 204 700 232 39 27 58 69 58 126 0 84 -68 153 -150 152 -19 -1
-181 -50 -359 -110z"/>
<path d="M6480 3095 c-255 -97 -478 -184 -495 -193 -42 -25 -78 -96 -71 -146
9 -74 78 -136 151 -136 31 0 174 49 511 176 426 160 472 179 506 214 66 68 60
163 -14 223 -71 57 -71 57 -588 -138z"/>
<path d="M6620 2695 c-173 -58 -330 -114 -348 -125 -43 -27 -76 -99 -68 -149
11 -70 81 -131 149 -131 24 0 167 42 359 106 344 114 375 130 398 200 32 95
-48 204 -147 204 -15 0 -170 -47 -343 -105z"/>
</g>
</svg>
